HIERARCHY
ROOT Hips
{
  OFFSET 0 0 0
  CHANNELS 6 Xposition Yposition Zposition Zrotation Yrotation Xrotation
  JOINT LeftThigh
  {
    OFFSET 8.409438 0 -5.917753
    CHANNELS 3 Zrotation Yrotation Xrotation
    JOINT LeftLeg
    {
      OFFSET 0 0 -42.358652
      CHANNELS 3 Zrotation Yrotation Xrotation
      JOINT LeftFoot
      {
        OFFSET 0 0 -39.357303
        CHANNELS 3 Zrotation Yrotation Xrotation
      }
    }
  }
  JOINT RightThigh
  {
    OFFSET -8.409438 0 -5.917753
    CHANNELS 3 Zrotation Yrotation Xrotation
    JOINT RightLeg
    {
      OFFSET 0 0 -42.358652
      CHANNELS 3 Zrotation Yrotation Xrotation
      JOINT RightFoot
      {
        OFFSET 0 0 -39.357303
        CHANNELS 3 Zrotation Yrotation Xrotation
      }
    }
  }
  JOINT SpineLow
  {
    OFFSET 0 0 4.719101
    CHANNELS 3 Zrotation Yrotation Xrotation
    JOINT SpineMid
    {
      OFFSET 0 0 12.899191
      CHANNELS 3 Zrotation Yrotation Xrotation
      JOINT Chest
      {
        OFFSET 0 0 12.899191
        CHANNELS 3 Zrotation Yrotation Xrotation
        JOINT LeftShoulder
        {
          OFFSET 7.550562 1.41573 9.438202
          CHANNELS 3 Zrotation Yrotation Xrotation
          JOINT LeftArm
          {
            OFFSET 9.155056 0 4.247191
            CHANNELS 3 Zrotation Yrotation Xrotation
            JOINT LeftForearm
            {
              OFFSET 0 0 25.771955
              CHANNELS 3 Zrotation Yrotation Xrotation
              JOINT LeftHand
              {
                OFFSET 0 0 25.197169
                CHANNELS 3 Zrotation Yrotation Xrotation
              }
            }
          }
        }
        JOINT RightShoulder
        {
          OFFSET -7.550562 1.41573 9.438202
          CHANNELS 3 Zrotation Yrotation Xrotation
          JOINT RightArm
          {
            OFFSET -9.155056 0 4.247191
            CHANNELS 3 Zrotation Yrotation Xrotation
            JOINT RightForearm
            {
              OFFSET 0 0 -25.771955
              CHANNELS 3 Zrotation Yrotation Xrotation
              JOINT RightHand
              {
                OFFSET 0 0 -25.197169
                CHANNELS 3 Zrotation Yrotation Xrotation
              }
            }
          }
        }
        JOINT Neck
        {
          OFFSET 0 0 15.101124
          CHANNELS 3 Zrotation Yrotation Xrotation
          JOINT Head
          {
            OFFSET 0 0 11.325843
            CHANNELS 3 Zrotation Yrotation Xrotation
            End Site
            {
              OFFSET 0 0 14.157303
            }
          }
        }
      }
    }
  }
}
MOTION
Frames: 15
Frame Time: 0.0
0.0  89.887642  0.0  9.10566  -44.542428  -103.985639  26.723669  -11.00543  3.599294  1.046312  5.505523  29.286174  1.035612  -1.153607  2.141295  8.08594  9.571673  -15.179895  3.794522  5.834457  18.903945  1.002568  0.110067  -2.166107  -2.089713  0.823681  1.066547  -5.676588  2.341152  2.84273  -5.676588  2.341152  2.84273  -14.446088  -0.733848  0.861079  -31.897007  48.167263  40.94732  -24.127366  -14.596234  105.223598  89.181391  -6.491228  -11.492012  -23.455543  -2.609869  18.228596  51.16849  7.799151  43.591936  10.381999  -14.702276  -113.418087  79.220507  5.388348  -28.723076  10.799108  2.866733  4.689314  8.076204  2.233884  3.466838  
0.0  89.887642  0.0  8.874575  -44.266342  -103.64063  26.923244  -11.174134  3.41693  0.949625  5.571827  29.27445  0.841604  -1.198514  2.028718  7.309435  9.381943  -15.462379  3.716978  5.927713  18.821564  1.301429  0.133633  -2.087113  -2.131738  0.799974  1.050883  -5.792961  2.27683  2.800436  -5.792961  2.27683  2.800436  -14.470845  -0.762416  0.809419  -31.74927  48.26108  40.995915  -24.04864  -14.208998  105.030744  89.303829  -6.479753  -11.59373  -23.427522  -2.710519  18.116972  51.223096  7.901026  43.593308  10.506143  -14.938554  -113.457128  79.225391  5.253816  -28.860475  10.902774  2.897182  4.689528  8.153671  2.257546  3.465977  
0.0  89.887642  0.0  8.758055  -44.019751  -103.489152  27.26837  -11.304157  3.301317  0.594998  5.568395  29.201989  0.754683  -1.227158  2.041456  7.138434  9.362834  -15.470037  3.71517  5.917261  18.794274  1.308287  0.124808  -2.0419  -2.134421  0.794598  1.043926  -5.800749  2.261653  2.781796  -5.800749  2.261653  2.781796  -14.642621  -0.714276  0.834232  -31.655181  48.308604  41.035119  -24.086276  -13.967151  105.005568  89.3546  -6.389554  -11.621232  -23.613552  -2.790614  18.069804  51.221764  7.880461  43.502658  10.568647  -15.081683  -113.425098  79.169977  5.11692  -28.934767  10.791891  2.868003  4.694762  8.070756  2.234877  3.470934  
0.0  89.887642  0.0  8.563552  -43.697497  -103.161433  27.60989  -11.48396  3.083881  0.204018  5.642013  29.11275  0.63404  -1.209888  1.977981  6.600204  9.208373  -15.670127  3.679986  5.970459  18.66545  1.619368  0.17701  -1.91141  -2.193239  0.76748  1.013323  -5.963623  2.187291  2.698521  -5.963623  2.187291  2.698521  -14.530006  -0.548319  0.879277  -31.807559  48.350488  40.888985  -23.980315  -13.736686  104.880482  89.552323  -6.668114  -11.844068  -23.49667  -2.776886  17.947551  51.325002  7.975528  43.526617  10.634706  -15.315675  -113.485164  79.096975  5.003081  -28.909654  10.935656  2.926912  4.730799  8.177877  2.280852  3.496238  
0.0  89.887642  0.0  8.430254  -43.378808  -103.016135  27.919576  -11.637272  2.951683  -0.278481  5.729731  29.028378  0.595491  -1.245776  2.002193  6.700833  9.229253  -15.589016  3.558213  5.921993  18.64078  1.569485  0.196541  -1.883792  -2.218186  0.757602  1.01037  -6.032286  2.161053  2.690488  -6.032287  2.161052  2.690488  -14.633456  -0.415959  0.928079  -31.92539  48.377352  40.735854  -23.997695  -13.720412  104.867783  89.615178  -6.657259  -11.867742  -23.566842  -2.813447  17.888704  51.327187  7.995795  43.434895  10.613385  -15.342108  -113.469867  79.054474  4.898681  -28.825697  10.848932  2.924663  4.712562  8.112947  2.278155  3.482994  
0.0  89.887642  0.0  8.227329  -43.020452  -102.745313  28.103524  -11.820316  2.754199  -0.526105  5.863285  29.039131  0.441604  -1.272073  1.903609  6.588994  9.20013  -15.647968  3.625339  5.834194  18.650372  1.601093  0.257266  -1.832491  -2.287189  0.726641  0.989689  -6.222736  2.077338  2.634536  -6.222736  2.077338  2.634536  -14.393144  -0.14053  1.003923  -32.206996  48.392154  40.531696  -24.001318  -13.791327  104.950822  89.823272  -6.774056  -12.035009  -23.378038  -2.769065  17.771691  51.42808  8.129385  43.483652  10.638481  -15.344734  -113.460209  78.973648  4.988957  -28.729623  10.975443  3.006959  4.724548  8.207022  2.341115  3.489883  
0.0  89.887642  0.0  8.054925  -42.643018  -102.609023  28.271588  -11.988797  2.667737  -1.003665  5.961774  28.910423  0.429032  -1.299176  1.935931  6.743453  9.234961  -15.528813  3.427587  5.771071  18.647646  1.49007  0.27579  -1.802492  -2.323333  0.712532  0.98951  -6.322057  2.040212  2.634202  -6.322057  2.040212  2.634202  -14.454062  0.049734  1.080388  -32.366072  48.404342  40.355094  -24.02582  -13.802436  104.910873  89.922279  -6.734312  -11.986175  -23.402347  -2.795988  17.746023  51.439973  8.175142  43.431275  10.566678  -15.2796  -113.459894  79.017125  4.97685  -28.767263  10.887045  3.020629  4.702004  8.140716  2.35027  3.473135  
0.0  89.887642  0.0  7.889356  -42.342357  -102.408333  28.391353  -12.146898  2.536228  -1.108043  6.084724  28.923466  0.277013  -1.328716  1.827306  6.94751  9.287472  -15.494271  3.28402  5.733012  18.656677  1.422545  0.309495  -1.748841  -2.389249  0.680028  0.975253  -6.503859  1.952656  2.596306  -6.503859  1.952656  2.596306  -14.088334  0.380313  1.17384  -32.643984  48.46734  40.118341  -24.022392  -13.859643  105.066991  89.970342  -6.600729  -11.936927  -23.158061  -2.749216  17.600582  51.554645  8.326116  43.53445  10.577102  -15.309961  -113.521347  79.073278  5.0466  -28.857915  11.031627  3.127109  4.698812  8.248192  2.431243  3.468073  
0.0  89.887642  0.0  7.72444  -41.960648  -102.275441  28.446101  -12.292641  2.494439  -1.436305  6.161487  28.763925  0.234996  -1.36291  1.836393  7.070982  9.317676  -15.395278  2.95458  5.739069  18.682205  1.346705  0.342807  -1.726474  -2.430369  0.661918  0.974103  -6.616945  1.904687  2.593696  -6.616945  1.904687  2.593696  -14.089019  0.597725  1.246238  -32.747311  48.49441  39.985111  -24.05385  -13.862214  105.012315  90.049488  -6.591544  -11.922448  -23.112792  -2.767705  17.540679  51.543408  8.389819  43.50418  10.525243  -15.231182  -113.486054  79.136175  5.073964  -28.971563  10.958888  3.159953  4.672763  8.19348  2.454845  3.44828  
0.0  89.887642  0.0  7.574962  -41.638544  -102.057537  28.312685  -12.407395  2.304893  -1.325081  6.253875  28.813005  0.10813  -1.363765  1.748134  7.419455  9.442283  -15.324088  2.680311  5.723625  18.711727  1.133761  0.309795  -1.703178  -2.492953  0.628873  0.953261  -6.789793  1.814759  2.538258  -6.789793  1.814759  2.538258  -13.678306  0.951873  1.352898  -32.968972  48.551588  39.861923  -24.021007  -13.908471  105.03789  90.234728  -6.556547  -11.97615  -22.828329  -2.708583  17.397594  51.475942  8.496893  43.475794  10.560686  -15.257118  -113.475106  79.231256  5.047684  -29.104939  11.067217  3.256374  4.668181  8.273866  2.527956  3.442501  
0.0  89.887642  0.0  7.43321  -41.270714  -101.918304  28.227572  -12.517094  2.236302  -1.469548  6.30805  28.700235  0.067188  -1.400662  1.751811  7.381686  9.478272  -15.290791  2.501789  5.688482  18.770024  1.062839  0.317111  -1.687311  -2.516953  0.611834  0.948916  -6.856111  1.768705  2.527451  -6.856111  1.768705  2.527451  -13.691655  1.133928  1.434856  -33.072261  48.611708  39.774242  -24.05337  -13.975219  104.994549  90.340331  -6.512516  -11.950662  -22.84201  -2.746179  17.350943  51.456487  8.590644  43.422737  10.512062  -15.18237  -113.40037  79.123706  5.161329  -29.133987  10.962129  3.278007  4.636257  8.195034  2.542791  3.418689  
0.0  89.887642  0.0  7.344004  -41.005311  -101.731498  28.010875  -12.570689  2.036133  -1.406266  6.389573  28.669506  0.063813  -1.365695  1.734061  7.69309  9.630128  -15.231617  2.076788  5.664592  18.73884  1.037446  0.303662  -1.623414  -2.540949  0.590733  0.931279  -6.922912  1.710167  2.480808  -6.922912  1.710167  2.480809  -13.459352  1.343707  1.520351  -33.256776  48.72292  39.670098  -24.042896  -14.049474  105.100016  90.419219  -6.434591  -11.919566  -22.655553  -2.752162  17.235982  51.243413  8.625431  43.262393  10.46611  -15.300655  -113.454126  79.180395  4.993558  -29.132025  10.995293  3.329004  4.611788  8.219571  2.58087  3.399214  
0.0  89.887642  0.0  7.252653  -40.659865  -101.615549  27.778155  -12.606938  1.976685  -1.413247  6.424075  28.584993  0.032098  -1.393646  1.747329  7.47731  9.676106  -15.276265  2.068095  5.595515  18.834221  0.982878  0.305636  -1.601423  -2.544369  0.581087  0.926796  -6.932706  1.683496  2.469474  -6.932706  1.683496  2.469474  -13.522765  1.451042  1.590635  -33.32035  48.807784  39.626134  -24.057338  -14.068729  105.073986  90.459857  -6.443118  -11.90808  -22.710448  -2.822204  17.250984  51.240464  8.722292  43.16284  10.358363  -15.259901  -113.387792  78.82351  5.213364  -28.797578  10.864169  3.331485  4.569856  8.121445  2.580969  3.368402  
0.0  89.887642  0.0  7.146267  -40.319587  -101.361976  27.436195  -12.595394  1.780025  -1.277728  6.487496  28.553116  0.02599  -1.356588  1.721848  7.417124  9.751042  -15.353008  1.993842  5.53941  18.877588  0.866066  0.288448  -1.561671  -2.576181  0.555667  0.899681  -7.021216  1.612408  2.397265  -7.021216  1.612408  2.397265  -13.306518  1.657299  1.677551  -33.374244  48.88764  39.610058  -24.112942  -14.126365  105.306442  90.588154  -6.499934  -12.038637  -22.546774  -2.84946  17.1981  51.129994  8.75163  43.061393  10.298105  -15.225365  -113.378791  78.518193  5.428649  -28.302373  10.924441  3.393788  4.551959  8.166181  2.627856  3.353508  
0.0  89.887642  0.0  7.074959  -39.975103  -101.253688  27.150019  -12.582489  1.730616  -1.277206  6.498072  28.460244  0.014303  -1.384103  1.740825  7.01306  9.769144  -15.436272  2.13241  5.467663  18.968958  0.823201  0.287405  -1.531891  -2.584454  0.544379  0.892365  -7.044383  1.581113  2.378269  -7.044383  1.581113  2.378269  -13.304626  1.781068  1.758302  -33.27994  48.961715  39.673174  -24.145225  -14.115599  105.272999  90.617486  -6.467941  -12.029945  -22.521451  -2.924104  17.266131  51.068296  8.857033  42.939943  10.228393  -15.210093  -113.374823  78.103335  5.724774  -27.708684  10.840541  3.412454  4.522198  8.103263  2.640691  3.33129  
